<svg fill="none" height="25" viewBox="0 0 95 25" width="95" xmlns="http://www.w3.org/2000/svg" xmlns:xlink="http://www.w3.org/1999/xlink"><clipPath id="a"><path d="m0 0h95v25h-95z"/></clipPath><g clip-path="url(#a)"><path d="m92.664 23.8h-15.2c-.384 0-.6613-.3093-.832-.928-.0853-.32-.128-.6293-.128-.928s.0427-.608.128-.928c.1707-.6187.448-.928.832-.928h15.2c.384 0 .6613.3093.832.928.0853.32.128.6293.128.928s-.0427.608-.128.928c-.1707.6187-.448.928-.832.928z" fill="#28c6e4"/><path d="m18.6022 23.296c0 .448-1.0026.672-3.008.672-2.0053 0-3.0933-.16-3.264-.48l-5.34395-9.984v9.952c0 .384-.992.576-2.976.576-1.96267 0-2.944-.192-2.944-.576v-21.408c0-.32.84266-.48 2.528-.48.66133 0 1.42933.064 2.304.192.896.10666 1.44.32 1.632.64l5.11995 9.856v-10.048c0-.40533.992-.608 2.976-.608s2.976.20267 2.976.608zm8.27.512c0 .1707-.9813.256-2.944.256-1.9413 0-2.912-.0747-2.912-.224v-15.712c0-.14933.9707-.224 2.912-.224 1.9627 0 2.944.064 2.944.192zm0-17.6c0 .14933-.9813.224-2.944.224-1.9413 0-2.912-.064-2.912-.192v-4.608c0-.21334.9707-.32 2.912-.32 1.9627 0 2.944.064 2.944.192zm3.63 15.904c-1.3226-1.472-1.984-3.5093-1.984-6.112s.6614-4.64 1.984-6.112c1.344-1.472 3.1467-2.208 5.408-2.208 2.2614 0 4.0534.736 5.376 2.208 1.3227 1.472 1.984 3.5093 1.984 6.112s-.6613 4.64-1.984 6.112c-1.3226 1.472-3.1146 2.208-5.376 2.208-2.2613 0-4.064-.736-5.408-2.208zm5.408-9.088c-1.1946 0-1.792.9813-1.792 2.944s.5974 2.944 1.792 2.944c1.216 0 1.824-.9813 1.824-2.944s-.608-2.944-1.824-2.944zm9.1423-11.328c0-.256.9173-.384 2.752-.384 1.856 0 2.784.13867 2.784.416v6.208c.9173-.17067 1.568-.256 1.952-.256 4.48 0 6.72 2.5707 6.72 7.712 0 2.8587-.6933 5.0667-2.08 6.624-1.3653 1.536-3.3173 2.304-5.856 2.304-2.5173 0-4.608-.5653-6.272-1.696zm6.592 10.976c-.3627 0-.7147.1173-1.056.352v6.112c.2987.128.608.192.928.192.3413 0 .6827-.128 1.024-.384.5973-.4267.896-1.4187.896-2.976 0-2.1973-.5973-3.296-1.792-3.296zm21.329 10.464c-1.344.7893-3.072 1.184-5.184 1.184s-3.8933-.7147-5.344-2.144c-1.4507-1.4507-2.176-3.4453-2.176-5.984 0-2.56.6933-4.6187 2.08-6.176 1.408-1.55733 3.1787-2.336 5.312-2.336s3.776.544 4.928 1.632c1.1733 1.088 1.76 2.4107 1.76 3.968 0 3.456-1.984 5.184-5.952 5.184h-2.208c0 .64.1707 1.088.512 1.344.3627.2347.8853.352 1.568.352 1.4933 0 2.912-.3413 4.256-1.024.0213-.0213.1173.128.288.448.512.9173.768 1.696.768 2.336 0 .6187-.2027 1.024-.608 1.216zm-4-9.248c0-.896-.4373-1.344-1.312-1.344-.4053 0-.7573.128-1.056.384-.2773.2347-.416.5867-.416 1.056v.992h1.728c.704 0 1.056-.3627 1.056-1.088z" fill="#272822"/></g></svg>